<svg id="visual" viewBox="0 0 900 600" width="900" height="600" xmlns="http://www.w3.org/2000/svg" xmlns:xlink="http://www.w3.org/1999/xlink" version="1.1"><rect x="0" y="0" width="900" height="600" fill="#ffffff"></rect><defs><linearGradient id="grad1_0" x1="33.3%" y1="0%" x2="100%" y2="100%"><stop offset="20%" stop-color="#ffffff" stop-opacity="1"></stop><stop offset="80%" stop-color="#ffffff" stop-opacity="1"></stop></linearGradient></defs><defs><linearGradient id="grad2_0" x1="0%" y1="0%" x2="66.7%" y2="100%"><stop offset="20%" stop-color="#ffffff" stop-opacity="1"></stop><stop offset="80%" stop-color="#ffffff" stop-opacity="1"></stop></linearGradient></defs><g transform="translate(900, 0)"><path d="M0 486.7C-49.1 439.9 -98.2 393 -153.5 370.5C-208.7 347.9 -270.1 349.6 -323.9 323.9C-377.6 298.1 -423.8 244.8 -449.7 186.3C-475.6 127.7 -481.2 63.9 -486.7 0L0 0Z" fill="#FFA203"></path></g><g transform="translate(0, 600)"><path d="M0 -486.7C49.6 -450.7 99.2 -414.6 164.9 -398.2C230.7 -381.7 312.6 -384.9 344.2 -344.2C375.7 -303.5 357 -218.9 372.3 -154.2C387.7 -89.5 437.2 -44.8 486.7 0L0 0Z" fill="#FFA203"></path></g></svg>